<svg width="16" height="16" viewBox="0 0 16 16" fill="none" xmlns="http://www.w3.org/2000/svg">
<path d="M8 15C11.866 15 15 11.866 15 8C15 4.13401 11.866 1 8 1C4.13401 1 1 4.13401 1 8C1 11.866 4.13401 15 8 15Z" stroke="#0176F9" stroke-linecap="round" stroke-linejoin="round"/>
<path d="M7.61488 8.984L7.43888 6.032L7.40688 4.92H8.58288L8.55088 6.032L8.38288 8.984H7.61488ZM7.99088 11.112C7.57488 11.112 7.26288 10.784 7.26288 10.344C7.26288 9.904 7.57488 9.584 7.99088 9.584C8.41488 9.584 8.72688 9.904 8.72688 10.344C8.72688 10.784 8.41488 11.112 7.99088 11.112Z" fill="#0176F9"/>
</svg>
