<svg width="60" height="60" viewBox="0 0 60 60" fill="none" xmlns="http://www.w3.org/2000/svg">
<path d="M58.9212 22.9351L58.9212 22.9351C58.836 22.6511 58.6778 22.4046 58.4714 22.2205C58.2654 22.0368 58.0196 21.9224 57.7637 21.8836L57.7624 21.8834L40.0078 19.1687L39.4816 19.0883L39.2545 18.6069L31.3125 1.77293C31.1707 1.53446 30.9775 1.34191 30.7542 1.20884C30.5223 1.07065 30.264 1 30.004 1C29.7441 1 29.4858 1.07065 29.2539 1.20884C29.0306 1.34191 28.8374 1.53446 28.6956 1.77293L20.7536 18.6069L20.5265 19.0883L20.0003 19.1687L2.24571 21.8834L2.24437 21.8836C1.98848 21.9224 1.74265 22.0368 1.53668 22.2205C1.33024 22.4046 1.17213 22.6511 1.08683 22.9351L1.08401 22.9445L1.08101 22.9538C0.98925 23.2389 0.974982 23.5467 1.04056 23.841M58.9212 22.9351L1.04056 23.841M58.9212 22.9351L58.924 22.9442M58.9212 22.9351L58.924 22.9442M1.04056 23.841C1.10556 24.1327 1.24517 24.3942 1.43809 24.5986M1.04056 23.841L1.43809 24.5986M1.43809 24.5986L14.3383 37.7189L14.6943 38.081L14.612 38.582L11.566 57.1356C11.5659 57.1359 11.5659 57.1363 11.5658 57.1366C11.517 57.4399 11.5498 57.7509 11.6589 58.0333C11.7672 58.3135 11.9446 58.5504 12.1656 58.722C12.3855 58.8848 12.6393 58.9771 12.8983 58.9943C13.1594 59.0117 13.4224 58.9525 13.6586 58.8194L13.6656 58.8155L13.6656 58.8155L29.5203 50.0529L30.0035 49.7859L30.487 50.0525L46.3744 58.8151L46.3824 58.8195L46.3903 58.824C46.5903 58.9391 46.811 58.9984 47.0329 59C47.3312 58.995 47.6259 58.8989 47.8809 58.7175C48.0993 58.5463 48.2746 58.3111 48.3819 58.0333C48.4909 57.7512 48.5238 57.4406 48.4752 57.1377C48.4751 57.137 48.475 57.1363 48.4749 57.1356L45.3963 38.5837L45.3132 38.0825L45.6689 37.7198L58.5422 24.5935L1.43809 24.5986ZM58.924 22.9442C59.0133 23.2314 59.0242 23.5405 58.955 23.8347C58.8859 24.1286 58.7409 24.3905 58.5426 24.5931L58.924 22.9442Z" fill="url(#paint0_radial_5657_972)" stroke="#FFB800" stroke-width="2"/>
<defs>
<radialGradient id="paint0_radial_5657_972" cx="0" cy="0" r="1" gradientUnits="userSpaceOnUse" gradientTransform="translate(30 30) rotate(90) scale(30)">
<stop stop-color="white"/>
<stop offset="1" stop-color="#FFD600"/>
</radialGradient>
</defs>
</svg>
