<svg width="28" height="140" viewBox="0 0 28 140" fill="none" xmlns="http://www.w3.org/2000/svg">
<g id="Group 38154">
<rect id="Rectangle 36567" width="28" height="140" rx="5" fill="#FFC1F9"/>
<circle id="Ellipse 4023" cx="14" cy="14" r="14" fill="#FFC1F9"/>
<g id="Group 38155">
<g id="Vector 10">
<path d="M12.6162 14.2079C12.6412 14.2229 12.6605 14.2444 12.6814 14.2643C12.7547 14.3342 12.8384 14.3853 12.9242 14.4378C13.0262 14.5001 13.1099 14.5803 13.2258 14.6158C13.2959 14.6373 13.361 14.6712 13.4325 14.6908C13.591 14.734 13.739 14.7915 13.9029 14.8152C14.0224 14.8324 14.1282 14.8181 14.2451 14.799C14.3576 14.7805 14.47 14.7661 14.5809 14.7389C14.6801 14.7145 14.7775 14.6953 14.8676 14.645C14.9397 14.6047 15.0571 14.5661 15.1044 14.4951C15.1308 14.4556 15.1478 14.3736 15.1368 14.3263C15.1309 14.301 15.1047 14.2841 15.0822 14.2754C14.9818 14.237 14.848 14.2512 14.7432 14.25C14.4118 14.2463 14.0836 14.2619 13.753 14.2791C13.5558 14.2894 13.3707 14.28 13.1795 14.2375C13.1483 14.2306 12.8962 14.1695 12.8831 14.2287C12.8723 14.2772 12.8812 14.3019 12.8243 14.3161" stroke="#111111" stroke-linecap="round"/>
<path d="M12.6162 14.2079C12.6412 14.2229 12.6605 14.2444 12.6814 14.2643C12.7547 14.3342 12.8384 14.3853 12.9242 14.4378C13.0262 14.5001 13.1099 14.5803 13.2258 14.6158C13.2959 14.6373 13.361 14.6712 13.4325 14.6908C13.591 14.734 13.739 14.7915 13.9029 14.8152C14.0224 14.8324 14.1282 14.8181 14.2451 14.799C14.3576 14.7805 14.47 14.7661 14.5809 14.7389C14.6801 14.7145 14.7775 14.6953 14.8676 14.645C14.9397 14.6047 15.0571 14.5661 15.1044 14.4951C15.1308 14.4556 15.1478 14.3736 15.1368 14.3263C15.1309 14.301 15.1047 14.2841 15.0822 14.2754C14.9818 14.237 14.848 14.2512 14.7432 14.25C14.4118 14.2463 14.0836 14.2619 13.753 14.2791C13.5558 14.2894 13.3707 14.28 13.1795 14.2375C13.1483 14.2306 12.8962 14.1695 12.8831 14.2287C12.8723 14.2772 12.8812 14.3019 12.8243 14.3161" stroke="black" stroke-opacity="0.2" stroke-linecap="round"/>
</g>
<path id="Vector 6" d="M12.25 14C12.8157 14.8804 14.3076 16.1129 15.75 14" stroke="black" stroke-linecap="round"/>
<path id="Vector 9" d="M12.25 14H15.75" stroke="black" stroke-linecap="round"/>
</g>
<g id="Group 38151">
<path id="Vector 7" d="M7 9.625L9.625 11.375L7 12.8333" stroke="black" stroke-linecap="round"/>
<path id="Vector 8" d="M20.416 9.625L17.791 11.375L20.416 12.8333" stroke="black" stroke-linecap="round"/>
</g>
</g>
</svg>
