<svg width="48" height="48" viewBox="0 0 48 48" fill="none" xmlns="http://www.w3.org/2000/svg">
<g id="Group 38154">
<circle id="Ellipse 4023" cx="24" cy="24" r="24" fill="#FFC1F9"/>
<g id="Group 38155">
<g id="Vector 10">
<path d="M21.6294 24.3539C21.6722 24.3796 21.7053 24.4164 21.7412 24.4506C21.8668 24.5704 22.0102 24.658 22.1574 24.748C22.3323 24.8548 22.4757 24.9923 22.6744 25.0532C22.7946 25.0901 22.9061 25.1482 23.0288 25.1816C23.3005 25.2558 23.5542 25.3543 23.8351 25.3949C24.04 25.4245 24.2214 25.4 24.4218 25.3672C24.6147 25.3356 24.8073 25.3108 24.9974 25.2641C25.1675 25.2223 25.3345 25.1895 25.4889 25.1031C25.6125 25.034 25.8137 24.968 25.8949 24.8463C25.94 24.7785 25.9693 24.6379 25.9504 24.5569C25.9402 24.5136 25.8955 24.4845 25.8568 24.4697C25.6846 24.4037 25.4554 24.4281 25.2757 24.4261C24.7076 24.4197 24.145 24.4465 23.5782 24.476C23.2402 24.4936 22.9229 24.4775 22.5951 24.4047C22.5416 24.3928 22.1094 24.2881 22.0869 24.3896C22.0684 24.4727 22.0836 24.5151 21.9862 24.5394" stroke="#111111" stroke-linecap="round"/>
<path d="M21.6294 24.3539C21.6722 24.3796 21.7053 24.4164 21.7412 24.4506C21.8668 24.5704 22.0102 24.658 22.1574 24.748C22.3323 24.8548 22.4757 24.9923 22.6744 25.0532C22.7946 25.0901 22.9061 25.1482 23.0288 25.1816C23.3005 25.2558 23.5542 25.3543 23.8351 25.3949C24.04 25.4245 24.2214 25.4 24.4218 25.3672C24.6147 25.3356 24.8073 25.3108 24.9974 25.2641C25.1675 25.2223 25.3345 25.1895 25.4889 25.1031C25.6125 25.034 25.8137 24.968 25.8949 24.8463C25.94 24.7785 25.9693 24.6379 25.9504 24.5569C25.9402 24.5136 25.8955 24.4845 25.8568 24.4697C25.6846 24.4037 25.4554 24.4281 25.2757 24.4261C24.7076 24.4197 24.145 24.4465 23.5782 24.476C23.2402 24.4936 22.9229 24.4775 22.5951 24.4047C22.5416 24.3928 22.1094 24.2881 22.0869 24.3896C22.0684 24.4727 22.0836 24.5151 21.9862 24.5394" stroke="black" stroke-opacity="0.2" stroke-linecap="round"/>
</g>
<path id="Vector 6" d="M21 24C21.9697 25.5092 24.5273 27.6222 27 24" stroke="black" stroke-linecap="round"/>
<path id="Vector 9" d="M21 24H27" stroke="black" stroke-linecap="round"/>
</g>
<g id="Group 38151">
<path id="Vector 7" d="M12 16.5L16.5 19.5L12 22" stroke="black" stroke-linecap="round"/>
<path id="Vector 8" d="M35 16.5L30.5 19.5L35 22" stroke="black" stroke-linecap="round"/>
</g>
</g>
</svg>
