<svg width="16" height="16" viewBox="0 0 16 16" fill="none" xmlns="http://www.w3.org/2000/svg">
<path d="M8 15C11.866 15 15 11.866 15 8C15 4.13401 11.866 1 8 1C4.13401 1 1 4.13401 1 8C1 11.866 4.13401 15 8 15Z" stroke="#767676" stroke-linecap="round" stroke-linejoin="round"/>
<path d="M7.61537 8.984L7.44737 6.032L7.40737 4.92H8.59137L8.55137 6.032L8.38337 8.984H7.61537ZM7.99937 11.112C7.58337 11.112 7.27137 10.776 7.27137 10.344C7.27137 9.904 7.58337 9.576 7.99937 9.576C8.41537 9.576 8.73537 9.904 8.73537 10.344C8.73537 10.776 8.41537 11.112 7.99937 11.112Z" fill="#767676"/>
</svg>
