<svg width="28" height="28" viewBox="0 0 28 28" fill="none" xmlns="http://www.w3.org/2000/svg">
<g id="Frame" clip-path="url(#clip0_5572_1347)">
<path id="Path 112" d="M13.5361 3.9263C13.8354 3.00505 15.1386 3.00489 15.4381 3.92606L17.3666 9.8572C17.5006 10.2691 17.8845 10.548 18.3176 10.548H24.1122C25.061 10.548 25.4764 11.7457 24.7313 12.3332L20.0572 16.0189C19.7283 16.2782 19.5959 16.715 19.7254 17.1133L21.6628 23.073C21.9623 23.9943 20.908 24.7606 20.1241 24.1913L15.0774 20.5257C14.727 20.2713 14.2527 20.2712 13.9023 20.5255L8.85169 24.1915C8.06784 24.7605 7.01381 23.9942 7.31326 23.073L9.25151 17.1109C9.38086 16.7131 9.24885 16.2767 8.92065 16.0173L4.25739 12.3309C3.51355 11.7429 3.92934 10.5465 4.87754 10.5465H10.6588C11.0921 10.5465 11.476 10.2675 11.6099 9.85543L13.5361 3.9263Z" fill="#0176F9" stroke="#0176F9" stroke-width="2"/>
</g>
<defs>
<clipPath id="clip0_5572_1347">
<rect width="28" height="28" fill="white"/>
</clipPath>
</defs>
</svg>
