<svg width="4" height="24" viewBox="0 0 4 24" fill="none" xmlns="http://www.w3.org/2000/svg">
<path d="M4 22C4 20.8954 3.10457 20 2 20C0.89543 20 -1.35705e-07 20.8954 -8.74228e-08 22C-3.91405e-08 23.1046 0.89543 24 2 24C3.10457 24 4 23.1046 4 22Z" fill="#505050"/>
<path d="M4 12C4 10.8954 3.10457 10 2 10C0.89543 10 -1.35705e-07 10.8954 -8.74228e-08 12C-3.91405e-08 13.1046 0.89543 14 2 14C3.10457 14 4 13.1046 4 12Z" fill="#505050"/>
<path d="M4 2C4 0.89543 3.10457 -1.35705e-07 2 -8.74228e-08C0.89543 -3.91405e-08 -1.35705e-07 0.895431 -8.74228e-08 2C-3.91405e-08 3.10457 0.89543 4 2 4C3.10457 4 4 3.10457 4 2Z" fill="#505050"/>
</svg>
