<svg width="20" height="20" viewBox="0 0 20 20" fill="none" xmlns="http://www.w3.org/2000/svg">
<path d="M3.88834 19.1513H0.847656V16.1107L11.871 5.0874L14.9117 8.12796L3.88834 19.1513Z" fill="#999999"/>
<path d="M3.53712 18.3028L13.7125 8.12743L11.8713 6.28604L1.6959 16.4614V18.3028H3.53712ZM4.23974 19.9987H0V15.759L11.8713 3.8877L16.111 8.12743L4.23974 19.9987Z" fill="#999999"/>
<path d="M17.8063 5.23349L14.7656 2.1929L16.1104 0.848145L19.1511 3.88888L17.8063 5.23349Z" fill="#999999"/>
<path d="M17.8061 4.03376L17.9515 3.88827L16.1102 2.04687L15.9649 2.19236L17.8061 4.03376ZM17.8061 6.43212L13.5664 2.19238L15.5107 0.248034C15.8428 -0.082678 16.3777 -0.082678 16.7098 0.248034L19.7505 3.28877C20.0821 3.61947 20.0821 4.15707 19.7505 4.48777L17.8061 6.43212Z" fill="#999999"/>
</svg>
