<svg width="20" height="20" viewBox="0 0 20 20" fill="none" xmlns="http://www.w3.org/2000/svg">
<g clip-path="url(#clip0_5813_3418)">
<path d="M17.0992 17.1064L7.69567 13.5221C7.56979 13.4718 7.46201 13.3846 7.38666 13.2718C7.31131 13.1591 7.27187 13.0263 7.27348 12.8907V7.10642C7.27187 6.97086 7.31131 6.83801 7.38666 6.7253C7.46201 6.6126 7.56979 6.52534 7.69567 6.47501L17.0992 2.89073C17.1865 2.86055 17.2799 2.85198 17.3712 2.86579C17.4626 2.87959 17.5492 2.91535 17.6237 2.96998C17.6983 3.02462 17.7585 3.09653 17.7991 3.17951C17.8397 3.26249 17.8596 3.35409 17.8571 3.44645V16.5479C17.8601 16.6405 17.8405 16.7324 17.8 16.8158C17.7596 16.8991 17.6995 16.9714 17.625 17.0264C17.5504 17.0813 17.4635 17.1173 17.3719 17.1313C17.2803 17.1452 17.1867 17.1367 17.0992 17.1064Z" fill="#385678"/>
<path d="M5.02917 13.3615H2.70634C2.55326 13.3576 2.40793 13.2931 2.30229 13.1823C2.19665 13.0714 2.13927 12.9232 2.14273 12.7701V7.2301C2.13927 7.07701 2.19665 6.92876 2.30229 6.8179C2.40793 6.70704 2.55326 6.6426 2.70634 6.63867H5.02917C5.20353 6.64261 5.36917 6.71562 5.48972 6.84166C5.61027 6.9677 5.67587 7.13643 5.67204 7.3108V12.6893C5.67587 12.8637 5.61027 13.0325 5.48972 13.1585C5.36917 13.2846 5.20353 13.3576 5.02917 13.3615Z" fill="#385678"/>
</g>
<defs>
<clipPath id="clip0_5813_3418">
<rect width="20" height="20" fill="white"/>
</clipPath>
</defs>
</svg>
