<svg width="16" height="15" viewBox="0 0 16 15" fill="none" xmlns="http://www.w3.org/2000/svg">
<path d="M8 14.5C11.866 14.5 15 11.366 15 7.5C15 3.63401 11.866 0.5 8 0.5C4.13401 0.5 1 3.63401 1 7.5C1 11.366 4.13401 14.5 8 14.5Z" stroke="#0176F9" stroke-linecap="round" stroke-linejoin="round"/>
<path d="M7.61586 8.484L7.44786 5.532L7.40786 4.42H8.59186L8.55186 5.532L8.38386 8.484H7.61586ZM7.99986 10.612C7.58386 10.612 7.27186 10.276 7.27186 9.844C7.27186 9.404 7.58386 9.076 7.99986 9.076C8.41586 9.076 8.73586 9.404 8.73586 9.844C8.73586 10.276 8.41586 10.612 7.99986 10.612Z" fill="#0176F9"/>
</svg>
