<svg width="20" height="21" viewBox="0 0 20 21" fill="none" xmlns="http://www.w3.org/2000/svg">
<g id="Vector">
<path id="Vector_2" d="M19.9597 8.52179C19.9139 8.3696 19.8282 8.23404 19.7123 8.13069C19.5964 8.02735 19.4551 7.96042 19.3045 7.93761L13.3863 7.03272L10.7329 1.40864C10.6574 1.27574 10.5503 1.16569 10.422 1.08926C10.2938 1.01284 10.1488 0.972656 10.0013 0.972656C9.85385 0.972656 9.70889 1.01284 9.58065 1.08926C9.4524 1.16569 9.34528 1.27574 9.26976 1.40864L6.61639 7.03272L0.698187 7.93761C0.547639 7.96042 0.406286 8.02735 0.290387 8.13069C0.174488 8.23404 0.0887506 8.3696 0.0430354 8.52179C-0.00576874 8.67341 -0.0132279 8.83632 0.021499 8.99216C0.0562258 9.14799 0.131758 9.29055 0.239581 9.40377L4.54175 13.7793L3.52626 19.9647C3.50052 20.1239 3.51753 20.2876 3.57538 20.4373C3.63323 20.5869 3.72965 20.7168 3.85384 20.8123C3.97822 20.9053 4.12492 20.9599 4.27736 20.97C4.42979 20.9802 4.58188 20.9454 4.71645 20.8696L10.0013 17.9487L15.2972 20.8696C15.4143 20.937 15.5457 20.9724 15.6793 20.9727C15.8511 20.9706 16.0184 20.9147 16.1598 20.8123C16.284 20.7168 16.3804 20.5869 16.4382 20.4373C16.4961 20.2876 16.5131 20.1239 16.4874 19.9647L15.4609 13.7793L19.7522 9.40377C19.8619 9.29179 19.9395 9.14979 19.9762 8.9939C20.0128 8.838 20.0071 8.67445 19.9597 8.52179Z" fill="#FFD32C"/>
</g>
</svg>
