<svg width="17" height="17" viewBox="0 0 17 17" fill="none" xmlns="http://www.w3.org/2000/svg">
<mask id="mask0_5105_8384" style="mask-type:luminance" maskUnits="userSpaceOnUse" x="0" y="0" width="17" height="17">
<path d="M16.8111 6.81619H9.04848V10.0347H13.517C13.1005 12.0793 11.3584 13.2531 9.04848 13.2531C8.39764 13.2601 7.75189 13.1378 7.1486 12.8936C6.5453 12.6493 5.99644 12.2878 5.53376 11.83C5.07108 11.3722 4.70378 10.8272 4.45311 10.2266C4.20243 9.62591 4.07336 8.9815 4.07336 8.33062C4.07336 7.67975 4.20243 7.03533 4.45311 6.43467C4.70378 5.834 5.07108 5.28901 5.53376 4.83122C5.99644 4.37344 6.5453 4.01195 7.1486 3.76767C7.75189 3.52339 8.39764 3.40118 9.04848 3.4081C10.1672 3.40611 11.2516 3.79362 12.1157 4.50409L14.539 2.08078C13.0627 0.795166 11.1693 0 9.04848 0C6.85085 0.0179548 4.74934 0.903554 3.20169 2.4639C1.65404 4.02424 0.785645 6.13292 0.785645 8.33062C0.785645 10.5283 1.65404 12.637 3.20169 14.1973C4.74934 15.7577 6.85085 16.6433 9.04848 16.6612C13.2139 16.6612 17.0001 13.6318 17.0001 8.33034C16.9932 7.82019 16.9298 7.31238 16.8111 6.81619Z" fill="white"/>
</mask>
<g mask="url(#mask0_5105_8384)">
<path d="M-0.0395508 13.2493V3.4043L6.39796 8.3271L-0.0395508 13.2493Z" fill="#FBBC05"/>
</g>
<mask id="mask1_5105_8384" style="mask-type:luminance" maskUnits="userSpaceOnUse" x="0" y="0" width="17" height="17">
<path d="M16.8111 6.81619H9.04848V10.0347H13.517C13.1005 12.0793 11.3584 13.2531 9.04848 13.2531C8.39764 13.2601 7.75189 13.1378 7.1486 12.8936C6.5453 12.6493 5.99644 12.2878 5.53376 11.83C5.07108 11.3722 4.70378 10.8272 4.45311 10.2266C4.20243 9.62591 4.07336 8.9815 4.07336 8.33062C4.07336 7.67975 4.20243 7.03533 4.45311 6.43467C4.70378 5.834 5.07108 5.28901 5.53376 4.83122C5.99644 4.37344 6.5453 4.01195 7.1486 3.76767C7.75189 3.52339 8.39764 3.40118 9.04848 3.4081C10.1672 3.40611 11.2516 3.79362 12.1157 4.50409L14.539 2.08078C13.0627 0.795166 11.1693 0 9.04848 0C6.85085 0.0179548 4.74934 0.903554 3.20169 2.4639C1.65404 4.02424 0.785645 6.13292 0.785645 8.33062C0.785645 10.5283 1.65404 12.637 3.20169 14.1973C4.74934 15.7577 6.85085 16.6433 9.04848 16.6612C13.2139 16.6612 17.0001 13.6318 17.0001 8.33034C16.9932 7.82019 16.9298 7.31238 16.8111 6.81619Z" fill="white"/>
</mask>
<g mask="url(#mask1_5105_8384)">
<path d="M-0.0395508 3.40764L6.39796 8.33044L9.0487 6.02057L18.1364 4.54367V-0.757812H-0.0395508V3.40764Z" fill="#EA4335"/>
</g>
<mask id="mask2_5105_8384" style="mask-type:luminance" maskUnits="userSpaceOnUse" x="0" y="0" width="17" height="17">
<path d="M16.8111 6.81619H9.04848V10.0347H13.517C13.1005 12.0793 11.3584 13.2531 9.04848 13.2531C8.39764 13.2601 7.75189 13.1378 7.1486 12.8936C6.5453 12.6493 5.99644 12.2878 5.53376 11.83C5.07108 11.3722 4.70378 10.8272 4.45311 10.2266C4.20243 9.62591 4.07336 8.9815 4.07336 8.33062C4.07336 7.67975 4.20243 7.03533 4.45311 6.43467C4.70378 5.834 5.07108 5.28901 5.53376 4.83122C5.99644 4.37344 6.5453 4.01195 7.1486 3.76767C7.75189 3.52339 8.39764 3.40118 9.04848 3.4081C10.1672 3.40611 11.2516 3.79362 12.1157 4.50409L14.539 2.08078C13.0627 0.795166 11.1693 0 9.04848 0C6.85085 0.0179548 4.74934 0.903554 3.20169 2.4639C1.65404 4.02424 0.785645 6.13292 0.785645 8.33062C0.785645 10.5283 1.65404 12.637 3.20169 14.1973C4.74934 15.7577 6.85085 16.6433 9.04848 16.6612C13.2139 16.6612 17.0001 13.6318 17.0001 8.33034C16.9932 7.82019 16.9298 7.31238 16.8111 6.81619Z" fill="white"/>
</mask>
<g mask="url(#mask2_5105_8384)">
<path d="M-0.0395508 13.2527L11.323 4.54367L14.3146 4.92235L18.1364 -0.757812V17.4181H-0.0395508V13.2527Z" fill="#34A853"/>
</g>
<mask id="mask3_5105_8384" style="mask-type:luminance" maskUnits="userSpaceOnUse" x="0" y="0" width="17" height="17">
<path d="M16.8111 6.81619H9.04848V10.0347H13.517C13.1005 12.0793 11.3584 13.2531 9.04848 13.2531C8.39764 13.2601 7.75189 13.1378 7.1486 12.8936C6.5453 12.6493 5.99644 12.2878 5.53376 11.83C5.07108 11.3722 4.70378 10.8272 4.45311 10.2266C4.20243 9.62591 4.07336 8.9815 4.07336 8.33062C4.07336 7.67975 4.20243 7.03533 4.45311 6.43467C4.70378 5.834 5.07108 5.28901 5.53376 4.83122C5.99644 4.37344 6.5453 4.01195 7.1486 3.76767C7.75189 3.52339 8.39764 3.40118 9.04848 3.4081C10.1672 3.40611 11.2516 3.79362 12.1157 4.50409L14.539 2.08078C13.0627 0.795166 11.1693 0 9.04848 0C6.85085 0.0179548 4.74934 0.903554 3.20169 2.4639C1.65404 4.02424 0.785645 6.13292 0.785645 8.33062C0.785645 10.5283 1.65404 12.637 3.20169 14.1973C4.74934 15.7577 6.85085 16.6433 9.04848 16.6612C13.2139 16.6612 17.0001 13.6318 17.0001 8.33034C16.9932 7.82019 16.9298 7.31238 16.8111 6.81619Z" fill="white"/>
</mask>
<g mask="url(#mask3_5105_8384)">
<path d="M18.1364 17.4148L6.39801 8.3271L4.8833 7.19107L18.1364 3.4043V17.4148Z" fill="#4285F4"/>
</g>
</svg>
